<svg width="343" height="25" viewBox="0 0 343 25" fill="none" xmlns="http://www.w3.org/2000/svg"><g class="logo-image"><path d="M0.238061 9.12234C0.389782 9.13383 9.22464 9.88053 18.3396 10.4779L17.9895 2.10339C9.93657 2.22975 3.56426 2.42504 2.32715 2.72372C0.308086 3.19472 0.0279849 4.74555 0.00464313 5.79092C-0.00702776 6.28489 -0.00702778 7.61746 0.133023 9.12234H0.238061Z" fill="#202020"></path><path d="M19.2733 10.5353C24.9337 10.8914 30.594 11.1786 34.247 11.1786C37.9 11.1786 43.5604 10.8914 49.2208 10.5353L49.5709 2.0919C44.7508 2.03446 39.4055 2 34.2353 2C29.0651 2 23.7315 2.03446 18.9115 2.0919L19.2733 10.5353Z" fill="#202020"></path><path d="M50.1428 10.4779C59.2577 9.89202 68.0926 9.13383 68.2443 9.12234L68.3493 9.11086C68.4894 7.61746 68.4894 6.27341 68.4777 5.79092C68.4544 4.75704 68.1859 3.19472 66.1669 2.72372C64.9181 2.42504 58.5458 2.22975 50.4929 2.11488L50.1428 10.4779Z" fill="#202020"></path><path d="M18.398 11.3969C9.62145 10.834 1.10171 10.1103 0.238061 10.0414C0.413124 11.4314 0.716567 12.8443 1.25343 13.7634C2.49054 15.923 4.82472 17.0144 8.62943 18.0023C10.3567 18.4503 14.5349 19.3119 19.1566 20.1275L18.398 11.3969Z" fill="#202020"></path><path d="M49.1507 11.4543C43.5137 11.8105 37.8883 12.0976 34.2353 12.0976C30.594 12.0976 24.9687 11.8105 19.32 11.4543L20.0786 20.2883C25.3888 21.1959 31.0959 22 34.2237 22C37.3515 22 43.0585 21.1959 48.3688 20.2883L49.1507 11.4543Z" fill="#202020"></path><path d="M50.0844 11.3969L49.3258 20.1275C53.9475 19.3234 58.1256 18.4618 59.8529 18.0023C63.6576 17.0144 65.9918 15.923 67.2289 13.7634C67.7541 12.8329 68.0692 11.4314 68.2443 10.0414C67.3807 10.1103 58.8609 10.834 50.0844 11.3969Z" fill="#202020"></path></g><g class="left-side-logo"><path d="M77.6345 15.9766C76.7303 15.9766 76 15.2398 76 14.3275V7.66082C76 6.74854 76.7303 6.0117 77.6345 6.0117H88.9717V7.7193H77.8663V14.269H87.1054V11.848H80.4282V10.1287H88.9717V15.9766H77.6345Z" fill="#202020"></path><path d="M93.4115 15.9766C92.5073 15.9766 91.777 15.2398 91.777 14.3275V6.0117H104.389V7.7193H93.6434V10.1404H104.088V11.8596H93.6434V14.2807H104.389V16H93.4115V15.9766Z" fill="#202020"></path><path d="M108.586 15.9766C107.682 15.9766 106.951 15.2398 106.951 14.3275V6.0117H119.564V7.7193H108.818V10.1404H119.262V11.8596H108.818V14.2807H119.564V16H108.586V15.9766Z" fill="#202020"></path><path d="M123.818 15.9766C122.914 15.9766 122.183 15.2398 122.183 14.3275V6H124.05V14.269H133.347V15.9883H123.818V15.9766Z"  fill="#202020"></path><path d="M136.025 15.9766V12.1637L129.915 6H132.315L136.952 10.6784L141.589 6H144L137.891 12.1637V15.9766H136.025Z" fill="#202020"></path></g><g class="belgee-logo"><path class="logo-bg" xmlns="http://www.w3.org/2000/svg" fill-rule="evenodd" clip-rule="evenodd" d="M213.728 2.02502C208.733 2.12481 197.882 2.37167 194.79 2.68305C190.732 3.09172 189.553 2.999 188.645 4.55976C187.737 6.12056 187.911 9.66953 188.413 12.2709C188.916 14.8723 189.341 15.6342 190.713 16.9163C193.369 19.399 204.759 21.6853 211.761 22.5934C216.146 23.1621 217.283 23.1293 221.749 22.526C228.781 21.5758 239.694 19.3395 242.287 16.9163C243.659 15.6343 244.084 14.8723 244.587 12.2709C245.089 9.66953 245.263 6.12056 244.355 4.55976C243.447 2.999 242.268 3.09182 238.21 2.68305C235.415 2.40155 226.277 2.17278 220.859 2.05772C218.391 2.00525 216.174 1.97613 213.728 2.02502Z" fill="#202020"></path><path class="logo-frame" d="M213.731 2.53428C211.234 2.58613 207.265 2.67694 203.507 2.79524C199.789 2.9127 196.308 3.05764 194.768 3.21887L193.401 3.35525C190.735 3.61503 189.836 3.70297 189.253 4.74419V4.74764C188.912 5.35662 188.753 6.38408 188.719 7.5602C188.675 9.07547 188.847 10.7964 189.114 12.2338C189.351 13.5128 189.565 14.3291 189.871 14.9605C190.16 15.558 190.562 16.0283 191.18 16.6293C192.22 17.6401 194.887 18.6584 198.135 19.5693C202.522 20.7998 207.892 21.7947 211.851 22.3286C214.018 22.6205 215.376 22.7585 216.719 22.746C218.058 22.7336 219.442 22.5692 221.659 22.2582C225.623 21.7013 230.825 20.7171 235.063 19.5135C238.221 18.6163 240.802 17.6189 241.82 16.6293C242.438 16.0283 242.839 15.558 243.129 14.9605C243.434 14.3291 243.649 13.5128 243.886 12.2338C244.153 10.7964 244.325 9.07547 244.281 7.5602C244.247 6.38408 244.088 5.35662 243.747 4.74764V4.74419C243.165 3.70327 242.265 3.61503 239.599 3.35525L238.232 3.21887C236.84 3.0731 233.864 2.94074 230.562 2.83018C227.219 2.71818 223.573 2.62824 220.864 2.56865C219.621 2.54118 218.445 2.51968 217.286 2.51195C216.122 2.50422 214.956 2.50907 213.731 2.53428ZM203.453 1.08348C207.179 0.966019 211.174 0.874635 213.697 0.822519C214.93 0.797011 216.109 0.79216 217.293 0.800157C218.482 0.808192 219.662 0.829682 220.898 0.856896C223.635 0.917313 227.304 1.00726 230.616 1.11842C233.969 1.23039 236.991 1.36502 238.407 1.51341L239.76 1.64974C243.095 1.97487 244.221 2.08543 245.242 3.90923C245.729 4.77542 245.952 6.07874 245.993 7.51324C246.04 9.15397 245.856 11.0044 245.571 12.5426C245.304 13.982 245.051 14.9241 244.673 15.7058C244.278 16.5207 243.775 17.1194 243.015 17.8581C241.77 19.0683 238.932 20.1978 235.527 21.1651C231.216 22.3896 225.924 23.3905 221.893 23.9568C219.621 24.2756 218.188 24.4446 216.732 24.4578C215.28 24.4712 213.862 24.3288 211.623 24.0272C207.594 23.4838 202.132 22.4721 197.672 21.221C194.179 20.2413 191.254 19.0912 189.985 17.8581C189.225 17.1194 188.722 16.521 188.327 15.7058C187.948 14.9241 187.696 13.982 187.429 12.5426C187.144 11.0044 186.96 9.15397 187.007 7.51324C187.048 6.07874 187.271 4.77542 187.756 3.90836C188.779 2.08543 189.905 1.97487 193.24 1.64974L194.593 1.51341C196.159 1.34955 199.687 1.20234 203.453 1.08348Z" fill="#ccc"></path><path fill-rule="evenodd" clip-rule="evenodd" d="M203.373 18.168H214.101C215.172 18.168 216.25 17.3226 216.51 16.2795L217.067 14.0066C217.257 13.2435 216.872 12.6231 216.207 12.5976C216.621 12.4795 216.955 12.1618 217.137 11.5318L217.776 8.97211C218.038 7.9296 217.38 7.08691 216.308 7.08691H201.989L201.286 9.8189H214.038C214.573 9.8189 214.711 10.1772 214.6 10.6206C214.492 11.0637 214.177 11.4248 213.639 11.4248H207.893H206.506H205.115L203.373 18.168ZM207.269 13.8288H213.571C214.107 13.8288 214.248 14.1899 214.14 14.633C214.032 15.0771 213.716 15.4374 213.181 15.4374H206.856L207.269 13.8288Z" fill="#fff"></path><path fill-rule="evenodd" clip-rule="evenodd" d="M218.116 18.168H227.242C228.316 18.168 229.401 17.324 229.67 16.285L230.919 11.4248H225.799L225.182 13.8288H227.523C227.523 13.8288 227.434 14.1899 227.319 14.633C227.205 15.0771 226.678 15.4374 226.142 15.4374H220.619C220.083 15.4374 219.757 15.0153 219.889 14.4965L220.849 10.7571C220.984 10.2383 221.529 9.8189 222.063 9.8189H231.33C231.33 9.8189 231.488 9.2081 231.681 8.4533C231.877 7.69832 231.163 7.08691 230.091 7.08691H220.958C219.887 7.08691 218.798 7.9296 218.532 8.97075L218.508 9.03515C218.499 9.07365 218.494 9.11061 218.484 9.14992L217.845 11.7104C217.749 12.0343 217.626 12.2944 217.484 12.505C217.484 12.505 217.488 12.5091 217.491 12.514C217.824 12.9565 217.929 13.5652 217.774 14.1829L217.216 16.4538C217.13 16.8038 216.975 17.1318 216.774 17.4283C217.012 17.8757 217.491 18.168 218.116 18.168Z" fill="#fff"></path></g><line x1="164.5" y1="2" x2="164.5" y2="20" stroke="#202020"></line><g class="right-side-logo"><path d="M272.245 10.9091C273.4 11.3333 273.704 11.7576 273.704 12.9091C273.704 13.1515 273.704 13.3939 273.704 13.6363C273.643 14.6667 273.218 15.2121 272.245 15.5758C271.577 15.8182 270.847 15.8788 270.118 15.8788C267.2 15.8788 264.282 15.8788 261.365 15.8788C261.061 15.8788 261 15.8182 261 15.5151C261 12.4848 261 9.39392 261 6.36362C261 6.1212 261.061 6.06059 261.304 6.06059C264.465 6.06059 267.626 6.06059 270.787 6.06059C271.394 6.06059 271.941 6.1818 272.489 6.36362C273.157 6.60605 273.583 7.0303 273.643 7.81818C273.704 8.30303 273.704 8.78788 273.643 9.27272C273.583 10 273.218 10.4848 272.549 10.7879C272.428 10.8485 272.367 10.8485 272.245 10.9091ZM267.139 9.87878C267.808 9.87878 268.477 9.87878 269.145 9.87878C269.388 9.87878 269.692 9.81818 269.814 9.57575C270.179 8.90909 269.753 8.24241 269.024 8.24241C267.686 8.24241 266.41 8.24241 265.073 8.24241C264.83 8.24241 264.83 8.30302 264.83 8.54544C264.83 8.90908 264.83 9.21212 264.83 9.57575C264.83 9.87878 264.89 9.99999 265.194 9.99999C265.863 9.87877 266.471 9.87878 267.139 9.87878ZM267.018 13.697C267.686 13.697 268.416 13.697 269.085 13.697C269.328 13.697 269.632 13.6364 269.753 13.3939C270.118 12.7879 269.753 12.1212 269.024 12.1212C267.686 12.0606 266.41 12.1212 265.073 12.1212C264.89 12.1212 264.83 12.1818 264.83 12.3636C264.83 12.7273 264.83 13.1515 264.83 13.5151C264.83 13.7576 264.89 13.7576 265.133 13.7576C265.741 13.697 266.41 13.697 267.018 13.697Z" fill="#202020"></path><path d="M283.126 6.06059C284.463 6.06059 285.801 6.06059 287.199 6.06059C287.442 6.06059 287.563 6.1212 287.563 6.42423C287.563 6.90908 287.563 7.39392 287.563 7.87877C287.563 8.1818 287.442 8.24241 287.199 8.24241C285.193 8.24241 283.187 8.24241 281.181 8.24241C281.059 8.24241 280.938 8.24241 280.816 8.24241C280.026 8.24241 279.783 8.48484 279.783 9.27272C279.783 9.93939 279.783 9.93939 280.391 9.93939C282.64 9.93939 284.889 9.93939 287.138 9.93939C287.442 9.93939 287.563 10.0606 287.503 10.3636C287.503 10.7879 287.503 11.2727 287.503 11.697C287.503 12.0606 287.442 12.1212 287.077 12.1212C284.767 12.1212 282.518 12.1212 280.208 12.1212C279.844 12.1212 279.722 12.2424 279.783 12.5454C279.783 13.5758 279.965 13.7576 280.999 13.7576C283.004 13.7576 285.071 13.7576 287.077 13.7576C287.503 13.7576 287.563 13.8788 287.563 14.2424C287.503 14.7273 287.563 15.2121 287.563 15.697C287.563 15.8788 287.503 16 287.32 16C284.524 15.9394 281.728 16.0606 278.993 15.9394C278.324 15.8788 277.655 15.7576 277.047 15.4545C276.379 15.1515 276.075 14.6667 276.075 13.8788C276.075 12.1212 276.075 10.303 276.075 8.54544C276.075 7.69696 276.622 6.78787 277.534 6.48484C278.263 6.24242 278.993 6.18181 279.722 6.18181C280.816 6.0606 281.971 6.06059 283.126 6.06059Z" fill="#202020"></path><path d="M289.691 9.99999C289.691 8.78786 289.691 7.57574 289.691 6.36362C289.691 6.1212 289.752 6 289.995 6C291.028 6 292.122 6 293.156 6C293.46 6 293.52 6.1212 293.46 6.36362C293.46 8.54544 293.46 10.7273 293.46 12.9697C293.46 13.5152 293.581 13.6363 294.128 13.6363C295.222 13.6363 296.377 13.6363 297.471 13.6363C298.626 13.6363 299.721 13.6363 300.875 13.6363C301.179 13.6363 301.24 13.697 301.24 14C301.24 14.4848 301.24 15.0303 301.24 15.5151C301.24 15.7576 301.179 15.8182 300.936 15.8182C298.262 15.7576 295.648 15.8788 292.973 15.7576C292.244 15.697 291.514 15.5758 290.846 15.3333C290.056 14.9697 289.752 14.4242 289.691 13.5758C289.63 12.3636 289.691 11.2121 289.691 9.99999Z" fill="#202020"></path><path d="M309.993 6.06059C311.331 6.06059 312.607 6.06059 313.944 6.06059C314.248 6.06059 314.309 6.1212 314.309 6.42423C314.309 6.90908 314.309 7.39392 314.309 7.87877C314.309 8.1818 314.188 8.24241 313.944 8.24241C311.817 8.24241 309.689 8.24241 307.562 8.24241C307.44 8.24241 307.258 8.24241 307.136 8.24241C306.772 8.30302 306.589 8.48484 306.589 8.84847C306.589 10.1818 306.589 11.5758 306.589 12.9091C306.589 13.4545 306.711 13.6363 307.258 13.6363C307.744 13.697 308.231 13.6363 308.717 13.6363C309.446 13.6363 310.115 13.6363 310.844 13.6363C311.452 13.6363 311.574 13.4545 311.574 12.8485C311.574 12.0606 311.574 11.3333 311.574 10.5455C311.574 10.303 311.635 10.1818 311.878 10.1818C312.972 10.1818 314.066 10.1818 315.16 10.1818C315.403 10.1818 315.464 10.2424 315.464 10.4848C315.464 11.5151 315.464 12.4848 315.464 13.5151C315.464 14.4242 314.978 15.0303 314.127 15.3939C313.337 15.7576 312.486 15.8182 311.695 15.8182C309.811 15.8182 307.866 15.8788 305.981 15.7576C305.252 15.697 304.523 15.5758 303.854 15.2727C303.185 14.9697 302.821 14.4848 302.76 13.697C302.699 11.8788 302.699 10.0606 302.76 8.24241C302.76 7.03029 303.428 6.42424 304.766 6.18181C305.981 5.99999 307.197 6 308.352 6C308.96 6.06061 309.446 6.06059 309.993 6.06059Z" fill="#202020"></path><path d="M324.825 6.06059C326.162 6.06059 327.56 6.06059 328.898 6.06059C329.141 6.06059 329.262 6.1212 329.262 6.42423C329.262 6.90908 329.262 7.39392 329.262 7.87877C329.262 8.1818 329.202 8.24241 328.898 8.24241C326.831 8.24241 324.825 8.24241 322.758 8.24241C322.637 8.24241 322.515 8.24241 322.394 8.24241C321.664 8.30302 321.482 8.48484 321.482 9.21211C321.482 9.93939 321.482 9.93939 322.211 9.93939C324.4 9.93939 326.588 9.93939 328.837 9.93939C329.141 9.93939 329.262 9.99999 329.262 10.303C329.202 10.7879 329.262 11.2727 329.262 11.7576C329.262 12.0606 329.202 12.1212 328.898 12.1212C326.588 12.1212 324.278 12.1212 321.968 12.1212C321.603 12.1212 321.482 12.2424 321.543 12.6061C321.543 13.6364 321.725 13.7576 322.758 13.7576C324.825 13.7576 326.831 13.7576 328.898 13.7576C329.202 13.7576 329.323 13.8182 329.323 14.1818C329.323 14.6667 329.323 15.2121 329.323 15.697C329.323 15.9394 329.262 15.9394 329.019 15.9394C326.223 15.8788 323.427 16 320.692 15.8788C320.023 15.8182 319.415 15.697 318.807 15.4545C318.078 15.1515 317.713 14.6061 317.713 13.8182C317.713 12 317.713 10.2424 317.713 8.42424C317.713 7.57576 318.139 6.90909 318.99 6.54545C319.597 6.30303 320.266 6.18181 320.935 6.18181C322.211 6.0606 323.488 6.06059 324.825 6.06059Z" fill="#202020"></path><path d="M338.563 6.06059C339.9 6.06059 341.237 6.06059 342.635 6.06059C342.939 6.06059 343 6.1212 343 6.42423C343 6.90908 343 7.39392 343 7.87877C343 8.1818 342.939 8.24241 342.635 8.24241C340.629 8.24241 338.563 8.24241 336.557 8.24241C336.435 8.24241 336.314 8.24241 336.192 8.24241C335.463 8.30302 335.219 8.48484 335.219 9.21211C335.219 9.87878 335.219 9.87878 335.888 9.87878C338.137 9.87878 340.325 9.87878 342.575 9.87878C342.878 9.87878 343 9.93939 342.939 10.2424C342.939 10.7273 342.939 11.2121 342.939 11.697C342.939 12 342.878 12.1212 342.575 12.1212C340.265 12.1212 338.016 12.1212 335.706 12.1212C335.341 12.1212 335.219 12.1818 335.219 12.6061C335.219 13.6364 335.402 13.7576 336.374 13.7576C338.441 13.7576 340.508 13.7576 342.514 13.7576C342.878 13.7576 342.939 13.8788 342.939 14.1818C342.939 14.6667 342.939 15.1515 342.939 15.6364C342.939 15.8788 342.878 15.9394 342.635 15.9394C339.839 15.8788 337.104 16 334.308 15.8788C333.639 15.8182 333.031 15.697 332.423 15.4545C331.694 15.1515 331.329 14.6061 331.329 13.7576C331.329 12 331.329 10.2424 331.329 8.48483C331.329 7.51514 331.815 6.78787 332.788 6.42423C333.517 6.18181 334.247 6.1212 335.037 6.1212C336.192 6.06059 337.347 6.06059 338.563 6.06059Z" fill="#202020"></path></g></svg>